<svg xmlns="http://www.w3.org/2000/svg" width="291" height="37" fill="none" viewBox="0 0 291 37"><path fill="#E7E5E4" d="M270.47 35.798V.638h20.47v4.286h-15.75v10.452h14.065v4.143H275.19v11.993h15.75v4.286zM244.046 35.798V.638h4.768v30.825h15.654v4.335zM222.053 35.798V4.973h-9.536V.638h23.793v4.335h-9.488v30.825zM196.689 36.28q-5.202 0-8.284-2.697-3.083-2.745-3.083-7.514h4.768q0 2.793 1.783 4.383t4.816 1.59q2.89 0 4.576-1.59 1.734-1.638 1.734-4.335 0-2.023-1.108-3.516-1.108-1.541-3.131-2.071l-5.202-1.397q-3.42-.963-5.442-3.468-1.975-2.553-1.975-6.02 0-2.843 1.252-4.961 1.3-2.168 3.613-3.324 2.312-1.204 5.346-1.204 3.083 0 5.394 1.204 2.36 1.156 3.661 3.275 1.3 2.119 1.301 4.913h-4.721q0-2.311-1.589-3.757-1.541-1.445-4.046-1.445t-4.046 1.445q-1.493 1.446-1.493 3.757 0 1.879 1.011 3.18 1.012 1.251 2.842 1.781l5.347 1.445q3.612.963 5.635 3.709 2.023 2.697 2.023 6.454 0 3.082-1.349 5.395-1.348 2.263-3.853 3.516-2.457 1.252-5.78 1.252M158.802 35.798V.638h20.47v4.286h-15.75v10.452h14.064v4.143h-14.064v11.993h15.75v4.286zM130.5 35.798V.638h10.885q3.227 0 5.635 1.3a9.14 9.14 0 0 1 3.757 3.564q1.349 2.265 1.349 5.347 0 3.564-1.831 6.117-1.782 2.553-4.768 3.612l7.08 15.22h-5.25l-6.695-14.69h-5.442v14.69zm4.72-18.929h6.165q2.697 0 4.238-1.637 1.59-1.638 1.59-4.335 0-2.745-1.59-4.383-1.589-1.638-4.238-1.638h-6.165zM110.385 35.798V4.973h-9.537V.638h23.794v4.335h-9.488v30.825zM14.72 36.22q-3.43 0-5.434-1.734-1.965-1.695-1.695-4.778l.578-6.203q.192-1.928-.578-2.775-.732-.886-3.044-.886H0v-3.43h4.547q2.312 0 3.044-.886.77-.886.578-2.812L7.59 6.473Q7.32 3.43 9.286 1.734 11.29 0 14.72 0h1.966v3.43h-1.812q-1.733 0-2.658.809-.925.808-.81 2.35l.579 6.242q.23 2.197-1.04 3.545-1.273 1.35-4.008 1.619 2.736.308 4.007 1.772 1.272 1.465 1.04 3.622l-.578 6.242q-.115 1.542.81 2.35.924.81 2.658.81h1.812v3.43zM69.18 36.22v-3.43h1.773q1.734 0 2.697-.808 1.002-.81.77-2.35l-.924-6.243q-.309-2.12.81-3.583 1.155-1.503 3.12-1.85-2.003-.347-3.12-1.657-1.119-1.31-.81-3.468l.925-6.242q.23-1.542-.77-2.35-.964-.81-2.698-.81H69.18V0h1.966q2.235 0 3.93.77 1.734.772 2.582 2.236.847 1.425.578 3.467l-.925 6.243q-.27 1.926.5 2.813.81.886 3.122.886h4.932v3.43h-4.932q-2.274 0-3.083.885-.81.848-.54 2.775l.925 6.203q.27 2.042-.578 3.507-.847 1.463-2.543 2.235-1.695.77-3.968.77z"/><path fill="#00BBA7" d="m55.572 24.649-2.464-1.722 1.934-2.729q.397-.556.768-.927.37-.371.821-.715-.556-.054-1.086-.133a7 7 0 0 1-1.06-.318l-3.099-1.139 1.033-2.834 3.1 1.139q.556.211 1.006.477.45.238.901.556a7.6 7.6 0 0 1-.291-1.086 7 7 0 0 1-.106-1.325v-3.152h3.02v3.152q0 .768-.106 1.325t-.292 1.086q.45-.318.901-.556.45-.265 1.007-.477l3.1-1.14 1.032 2.835-3.1 1.14q-.555.211-1.085.317a17 17 0 0 1-1.06.133q.45.345.821.715t.768.927l1.934 2.729-2.463 1.722-1.96-2.702a8 8 0 0 1-.61-1.007 13 13 0 0 1-.397-1.007 9 9 0 0 1-.424 1.007 6 6 0 0 1-.583 1.007zM39.688 24.649l-2.464-1.722 1.934-2.729q.396-.556.768-.927.37-.371.821-.715-.556-.054-1.086-.133a7 7 0 0 1-1.06-.318l-3.1-1.139 1.034-2.834 3.1 1.139q.555.211 1.006.477.45.238.9.556a7.6 7.6 0 0 1-.29-1.086 7 7 0 0 1-.106-1.325v-3.152h3.02v3.152q0 .768-.106 1.325t-.292 1.086q.45-.318.9-.556.451-.265 1.007-.477l3.1-1.14 1.033 2.835-3.1 1.14q-.555.211-1.086.317a17 17 0 0 1-1.06.133q.452.345.822.715t.768.927l1.934 2.729-2.464 1.722-1.96-2.702a8 8 0 0 1-.61-1.007 13 13 0 0 1-.397-1.007 9 9 0 0 1-.423 1.007 6 6 0 0 1-.583 1.007zM23.803 24.649l-2.463-1.722 1.933-2.729q.397-.556.769-.927.37-.371.82-.715-.555-.054-1.085-.133a7 7 0 0 1-1.06-.318l-3.1-1.139 1.034-2.834 3.1 1.139q.556.211 1.006.477.45.238.9.556a7.6 7.6 0 0 1-.29-1.086 7 7 0 0 1-.107-1.325v-3.152h3.02v3.152q0 .768-.106 1.325t-.291 1.086q.45-.318.9-.556.45-.265 1.007-.477l3.1-1.14 1.033 2.835-3.1 1.14q-.556.211-1.086.317a17 17 0 0 1-1.06.133q.45.345.822.715.37.37.768.927l1.934 2.729-2.464 1.722-1.96-2.702a8 8 0 0 1-.61-1.007 13 13 0 0 1-.397-1.007 9 9 0 0 1-.424 1.007 6 6 0 0 1-.582 1.007z"/></svg>
